name Walk2.mot
datacolumns 19
datarows 17
range 2.08500000 2.16500000
endheader

                time	   L_ground_force_vx	   L_ground_force_vy	   L_ground_force_vz	   L_ground_force_px	   L_ground_force_py	   L_ground_force_pz	   R_ground_force_vx	   R_ground_force_vy	   R_ground_force_vz	   R_ground_force_px	   R_ground_force_py	   R_ground_force_pz	   L_ground_torque_x	   L_ground_torque_y	   L_ground_torque_z	   R_ground_torque_x	   R_ground_torque_y	   R_ground_torque_z	
          2.08500000	         -0.00547149	          0.00131157	         -0.00238504	         -0.00009723	          0.00000000	         -0.00006327	        -29.14003345	        856.76385718	        -64.66179323	          0.39841231	          0.00000000	          0.11137377	          0.00000000	         -0.00000941	          0.00000000	          0.00000000	          7.06034176	          0.00000000	
          2.09000000	         -0.00746172	         -0.00682111	         -0.00128458	         -0.00006575	          0.00000000	         -0.00004381	        -27.69038200	        850.32081685	        -63.64379903	          0.40026739	          0.00000000	          0.11189677	          0.00000000	         -0.00000590	          0.00000000	          0.00000000	          6.80301780	          0.00000000	
          2.09500000	         -0.00814789	         -0.01149698	         -0.00047728	         -0.00004037	          0.00000000	         -0.00002786	        -26.30798821	        844.63768806	        -62.55774167	          0.40203522	          0.00000000	          0.11237741	          0.00000000	         -0.00000319	          0.00000000	          0.00000000	          6.55524130	          0.00000000	
          2.10000000	         -0.00794351	         -0.01358625	          0.00007817	         -0.00002089	          0.00000000	         -0.00001543	        -24.96865659	        839.69539385	        -61.44651664	          0.40371434	          0.00000000	          0.11281836	          0.00000000	         -0.00000120	          0.00000000	          0.00000000	          6.31343314	          0.00000000	
          2.10500000	         -0.00718421	         -0.01385155	          0.00042819	         -0.00000675	          0.00000000	         -0.00000624	        -23.65045834	        835.47210921	        -60.35491572	          0.40530505	          0.00000000	          0.11322255	          0.00000000	          0.00000017	          0.00000000	          0.00000000	          6.07408202	          0.00000000	
          2.11000000	         -0.00612911	         -0.01292619	          0.00061879	          0.00000285	          0.00000000	          0.00000015	        -22.33468779	        831.94398564	        -59.32539631	          0.40680802	          0.00000000	          0.11359348	          0.00000000	          0.00000104	          0.00000000	          0.00000000	          5.83401648	          0.00000000	
          2.11500000	         -0.00496775	         -0.01131047	          0.00069207	          0.00000878	          0.00000000	          0.00000423	        -21.00671444	        829.08680249	        -58.39444692	          0.40822401	          0.00000000	          0.11393470	          0.00000000	          0.00000151	          0.00000000	          0.00000000	          5.59046588	          0.00000000	
          2.12000000	         -0.00383010	         -0.00937982	          0.00068434	          0.00001189	          0.00000000	          0.00000652	        -19.65538102	        826.87841486	        -57.59058255	          0.40955279	          0.00000000	          0.11424945	          0.00000000	          0.00000170	          0.00000000	          0.00000000	          5.34131313	          0.00000000	
          2.12500000	         -0.00279764	         -0.00739990	          0.00062525	          0.00001294	          0.00000000	          0.00000747	        -18.27115324	        825.30060744	        -56.93318818	          0.41079383	          0.00000000	          0.11453966	          0.00000000	          0.00000168	          0.00000000	          0.00000000	          5.08485252	          0.00000000	
          2.13000000	         -0.00191428	         -0.00554498	          0.00053791	          0.00001260	          0.00000000	          0.00000749	        -16.84454450	        824.34251310	        -56.43256363	          0.41194792	          0.00000000	          0.11480574	          0.00000000	          0.00000154	          0.00000000	          0.00000000	          4.81948208	          0.00000000	
          2.13500000	         -0.00119640	         -0.00391691	          0.00043936	          0.00001138	          0.00000000	          0.00000691	        -15.36483353	        824.00310675	        -56.09155866	          0.41301672	          0.00000000	          0.11504734	          0.00000000	          0.00000132	          0.00000000	          0.00000000	          4.54371414	          0.00000000	
          2.14000000	         -0.00064142	         -0.00256308	          0.00034141	          0.00000970	          0.00000000	          0.00000599	        -13.81984486	        824.29067592	        -55.90789295	          0.41400232	          0.00000000	          0.11526434	          0.00000000	          0.00000108	          0.00000000	          0.00000000	          4.25624645	          0.00000000	
          2.14500000	         -0.00023479	         -0.00149218	          0.00025160	          0.00000785	          0.00000000	          0.00000493	        -12.19680233	        825.22059123	        -55.87577193	          0.41490743	          0.00000000	          0.11545727	          0.00000000	          0.00000084	          0.00000000	          0.00000000	          3.95587234	          0.00000000	
          2.15000000	          0.00004454	         -0.00068743	          0.00017411	          0.00000605	          0.00000000	          0.00000385	        -10.48519280	        826.81248178	        -55.98677619	          0.41573605	          0.00000000	          0.11562727	          0.00000000	          0.00000062	          0.00000000	          0.00000000	          3.64189224	          0.00000000	
          2.15500000	          0.00022015	         -0.00011699	          0.00011064	          0.00000441	          0.00000000	          0.00000286	         -8.67944756	        829.08709095	        -56.23090290	          0.41649391	          0.00000000	          0.11577565	          0.00000000	          0.00000043	          0.00000000	          0.00000000	          3.31449434	          0.00000000	
          2.16000000	          0.00031535	          0.00025808	          0.00006119	          0.00000301	          0.00000000	          0.00000200	         -6.77947831	        832.06197675	        -56.59804159	          0.41718802	          0.00000000	          0.11590421	          0.00000000	          0.00000027	          0.00000000	          0.00000000	          2.97450697	          0.00000000	
          2.16500000	          0.00035146	          0.00047819	          0.00002464	          0.00000188	          0.00000000	          0.00000129	         -4.78995717	        835.74405100	        -57.07939035	          0.41782804	          0.00000000	          0.11601485	          0.00000000	          0.00000015	          0.00000000	          0.00000000	          2.62320246	          0.00000000	
